# xmcd
#
# Track frame offsets:
#	150
#	12011
#	29435
#	45759
#	66270
#	79555
#	89715
#	104795
#	124279
#	135233
#
# Disc length: 2054 seconds
#
# Revision: 0
# Processed by: cddbd v1.5.2PL0 Copyright (c) Steve Scherf et al.
# Submitted via: EasyCDDAExtractor 10.2.0.1
#
DISCID=7c08040a
DTITLE=Jimmy Flanagan - Let My Life Make A Difference
DYEAR=1998
DGENRE=Gospel
TTITLE0=Let My Life Make A Difference
TTITLE1=The Unseen Hand
TTITLE2=Never Gonna Stop
TTITLE3=Lay It Down
TTITLE4=Amazing Grace
TTITLE5=I Feel Like Running
TTITLE6=For All He's Done
TTITLE7=Simple Things In Life
TTITLE8=I Still Believe
TTITLE9=Back To One Cross
EXTD=
EXTT0=
EXTT1=
EXTT2=
EXTT3=
EXTT4=
EXTT5=
EXTT6=
EXTT7=
EXTT8=
EXTT9=
PLAYORDER=
